<?xml version="1.0" encoding="UTF-8" standalone="no"?>
<svg
   xmlns:dc="http://purl.org/dc/elements/1.1/"
   xmlns:cc="http://creativecommons.org/ns#"
   xmlns:rdf="http://www.w3.org/1999/02/22-rdf-syntax-ns#"
   xmlns:svg="http://www.w3.org/2000/svg"
   xmlns="http://www.w3.org/2000/svg"
   xmlns:sodipodi="http://sodipodi.sourceforge.net/DTD/sodipodi-0.dtd"
   xmlns:inkscape="http://www.inkscape.org/namespaces/inkscape"
   width="100"
   height="100"
   viewBox="0 0 212.37983 212.38374"
   version="1.1"
   id="svg3133"
   inkscape:version="0.48.5 r10040"
   sodipodi:docname="rmhpa-meatball-logo.svg">
  <metadata
     id="metadata3150">
    <rdf:RDF>
      <cc:Work
         rdf:about="">
        <dc:format>image/svg+xml</dc:format>
        <dc:type
           rdf:resource="http://purl.org/dc/dcmitype/StillImage" />
      </cc:Work>
    </rdf:RDF>
  </metadata>
  <defs
     id="defs3148" />
  <sodipodi:namedview
     pagecolor="#ffffff"
     bordercolor="#666666"
     borderopacity="1"
     objecttolerance="10"
     gridtolerance="10"
     guidetolerance="10"
     inkscape:pageopacity="0"
     inkscape:pageshadow="2"
     inkscape:window-width="1235"
     inkscape:window-height="845"
     id="namedview3146"
     showgrid="false"
     fit-margin-top="0"
     fit-margin-left="0"
     fit-margin-right="0"
     fit-margin-bottom="0"
     inkscape:zoom="0.30849673"
     inkscape:cx="137.85458"
     inkscape:cy="316.10165"
     inkscape:window-x="0"
     inkscape:window-y="0"
     inkscape:window-maximized="0"
     inkscape:current-layer="svg3133" />
  <g
     id="surface1"
     transform="translate(-285.71633,-346.49758)">
    <path
       style="fill:#002161;fill-opacity:1;fill-rule:evenodd;stroke:#211e1e;stroke-width:0.60460001;stroke-linecap:butt;stroke-linejoin:miter;stroke-miterlimit:2.61312604;stroke-opacity:1"
       d="m 876.10098,593.22466 c 130.94182,0 237.08382,-106.15066 237.08382,-237.08378 0,-130.94185 -106.142,-237.09251 -237.08382,-237.09251 -130.93312,0 -237.08378,106.15066 -237.08378,237.09251 0,130.93312 106.15066,237.08378 237.08378,237.08378 z m 0,0"
       transform="matrix(0.44733,0,0,-0.44733,0,612)"
       id="path3136"
       inkscape:connector-curvature="0" />
    <path
       style="fill:#bd072e;fill-opacity:1;fill-rule:evenodd;stroke:none"
       d="m 310.95703,406.125 c -1.74219,2.5 -3.61328,6.78125 -4.9375,9.76172 -4.91797,11.08203 -7.57031,24.52344 -7.55859,36.96094 0.0117,9.20312 1.35937,17.80078 3.71093,25.99218 0.96875,3.37891 2.94532,8.82032 5.05079,13.5 3.75,-1.66406 4.3789,-1.8789 11.91406,0.0312 2.70312,0.6836 2.76953,1.71485 4.76172,2.48828 2.30078,0.89454 14.15625,1.20313 22.29687,4.38282 10.9375,4.27343 35.79688,3.63281 44.3711,8.21875 16.90625,9.03515 23.34765,-4.60547 40.1914,-5.49219 11.22266,-0.58984 6.8086,1.42187 18.16016,-1.70703 5.125,-1.41406 10.03906,-2.45703 15.70703,-3.57422 2.09375,1.39453 4.98828,1.83594 8.33203,2.21875 1.42188,-3.13672 4.12891,-7.26563 5.33984,-11.13672 -1.48046,-0.78516 -3.80078,-1.59375 -5.44531,-2.25781 l -37.66406,-15.1875 c -0.54297,0.71094 -1.3125,2.63672 -1.79688,3.5664 -0.57812,1.125 -1.11718,2.16016 -1.80078,3.27344 -3.19922,5.22656 -5.55078,7.41797 -9.65625,11.19922 -1.42578,1.3125 -3.99218,3.14453 -5.91406,4.27734 -31.80078,18.75391 -70.97266,-3.89453 -70.87109,-40.03515 0.10156,-38.08203 42.03125,-57.94531 71.03125,-39.70313 6.78906,4.27344 11.48437,9.09766 15.49609,15.54297 1.08984,1.7461 2.51172,5.36328 3.50781,6.67578 l 43.11328,-17.42968 c -0.55468,-1.84375 -1.82421,-4.33204 -2.65625,-6.04688 -0.88671,-1.81641 -2.1875,-3.87891 -2.89453,-5.62109 -0.92578,-1.04297 -2.23047,-3.55469 -3.09765,-4.86719 -16.8125,-25.52344 -46.13282,-41.82813 -77.90235,-41.78906 -19.15234,0.0234 -36.42578,5.9414 -49.61718,14.30078 -11.87891,7.53125 -24.73047,19.97265 -31.17188,32.45703"
       id="path3138"
       inkscape:connector-curvature="0" />
    <path
       style="fill:#ffd700;fill-opacity:1;fill-rule:evenodd;stroke:none"
       d="m 435.26953,470.29687 c 0.17188,-1.1289 0.86719,-2.6289 1.23438,-3.85156 2.26562,-7.58203 2.74218,-15.29687 1.13281,-23.07031 -0.58985,-2.85156 -2.26172,-7.63281 -2.36719,-8.28125 -0.99609,-1.3125 -2.41797,-4.92969 -3.50781,-6.67578 -4.01563,-6.44531 -8.70703,-11.26953 -15.4961,-15.54297 -29,-18.24219 -70.92968,1.625 -71.03515,39.70703 -0.0977,36.13672 39.07422,58.78516 70.875,40.03125 1.92187,-1.13281 4.48828,-2.96484 5.91406,-4.27734 4.10547,-3.78125 6.45703,-5.97266 9.65625,-11.19922 0.68359,-1.11328 1.22266,-2.14844 1.80078,-3.27344 0.48047,-0.92969 1.25391,-2.85547 1.79297,-3.56641"
       id="path3140"
       inkscape:connector-curvature="0" />
    <path
       style="fill:#002161;fill-opacity:1;fill-rule:evenodd;stroke:none"
       d="m 371.41016,377.01953 c 29.47656,-10.40234 59.67187,-0.56641 77.49609,22.35156 7.07812,9.10157 3.53516,5.25391 -1.67969,1.76953 -19.26953,-12.875 -45.41015,-16.3789 -71.39453,-7.19531 -27.0625,9.5625 -47.47266,30.84375 -57.04297,55.04297 -1.60547,4.0625 -2.07422,7.12109 -1.46484,0.0234 2.73828,-31.87891 23.53515,-61.21485 54.08594,-71.99219"
       id="path3142"
       inkscape:connector-curvature="0" />
    <path
       style="fill:#002161;fill-opacity:1;fill-rule:evenodd;stroke:none"
       d="m 393.64062,447.89062 29.3086,75.84375 -43.06641,-49.3164 -64.6289,-20.6875 c -2.875,-0.79297 -2.79688,-1.27344 -0.0469,-1.47266 l 74.85938,-6.30859 c 1.96484,-0.27344 2.97656,0.30859 3.57421,1.9414"
       id="path3144"
       inkscape:connector-curvature="0" />
  </g>
</svg>
