<?xml version="1.0" encoding="UTF-8"?>
<!DOCTYPE svg PUBLIC "-//W3C//DTD SVG 1.1//EN" "http://www.w3.org/Graphics/SVG/1.1/DTD/svg11.dtd">
<!-- Creator: CorelDRAW X6 -->
<svg xmlns="http://www.w3.org/2000/svg" xml:space="preserve" width="11in" height="8.5in" version="1.1" style="shape-rendering:geometricPrecision; text-rendering:geometricPrecision; image-rendering:optimizeQuality; fill-rule:evenodd; clip-rule:evenodd"
viewBox="0 0 11000 8500"
 xmlns:xlink="http://www.w3.org/1999/xlink">
 <defs>
  <style type="text/css">
   <![CDATA[
    .fil1 {fill:#00407C}
    .fil0 {fill:#9F1F27}
    .fil2 {fill:#00407C;fill-rule:nonzero}
   ]]>
  </style>
 </defs>
 <g id="Layer_x0020_1">
  <metadata id="CorelCorpID_0Corel-Layer"/>
  <path class="fil0" d="M8902 5513l668 1521 -2227 -1465c74,1 147,1 220,1 444,0 895,-15 1339,-57z"/>
  <path class="fil1" d="M7660 2687l179 409c-59,-13 -118,-25 -177,-37 -700,-139 -1410,-239 -2119,-309 -706,-70 -1418,-110 -2126,-109 -170,0 -341,2 -512,7l-1471 -968 3113 503 3113 504z"/>
  <path class="fil0" d="M5606 2836c1741,128 3232,508 3951,957 -754,-335 -2114,-562 -3702,-573 -2192,-15 -4088,388 -4590,937 -158,-140 -240,-284 -230,-428 45,-675 2091,-1075 4571,-893z"/>
  <path class="fil2" d="M9387 4298l0 -33c0,-26 -2,-49 -5,-69 -3,-19 -8,-36 -15,-49l0 -1c-19,-42 -61,-74 -126,-96 -72,-25 -170,-37 -295,-37 -123,0 -220,11 -291,35 -65,21 -107,52 -127,92l0 0c-8,14 -13,32 -17,52 -4,20 -6,45 -6,73l0 33 882 0zm219 327c0,26 -11,48 -33,66 -11,9 -23,16 -35,20 -14,5 -27,7 -42,7 -14,0 -28,-2 -41,-7l-1 0c-12,-4 -24,-11 -34,-20 -11,-9 -19,-19 -24,-30 -6,-11 -9,-23 -9,-36l0 -142 -882 0 0 142c0,13 -3,25 -8,36 -6,11 -14,21 -24,30 -11,9 -22,15 -35,20 -14,5 -27,7 -42,7 -14,0 -28,-2 -42,-7 -13,-4 -25,-11 -35,-20 -10,-9 -18,-19 -24,-30 -6,-11 -8,-23 -8,-36l0 -360c0,-81 16,-151 50,-210 34,-61 85,-109 153,-145l0 0c53,-28 118,-49 196,-63 75,-13 162,-20 260,-20 98,0 185,7 260,20 77,14 143,35 196,63l0 0c68,36 119,84 153,145 34,59 51,129 51,210l0 360zm-1701 -529c0,-12 -1,-21 -3,-29 -2,-7 -5,-12 -8,-16l0 0c-9,-11 -28,-19 -58,-26 -37,-8 -88,-12 -153,-12l-705 0 0 167 705 0c40,0 74,-1 101,-4 26,-2 46,-5 60,-9l1 -1c21,-6 36,-14 46,-26 9,-11 14,-25 14,-44zm220 1c0,90 -40,158 -120,204 -74,43 -181,64 -322,64l-705 0 0 260c0,13 -3,25 -9,36 -5,11 -13,21 -24,30 -10,9 -22,15 -35,20 -13,5 -27,7 -41,7 -15,0 -29,-2 -42,-7 -13,-4 -25,-11 -36,-20 -10,-9 -18,-19 -23,-30 -6,-11 -9,-23 -9,-36l0 -704c0,-12 3,-24 9,-36 5,-11 13,-21 23,-30 11,-9 23,-16 35,-20 14,-5 28,-8 43,-8l814 0c141,0 248,22 322,64 80,47 120,115 120,206zm-1527 528c0,13 -3,25 -9,37 -5,11 -14,21 -25,30l0 0c-10,8 -22,15 -34,19l0 0c-14,5 -28,7 -42,7 -14,0 -28,-2 -42,-7l0 0c-12,-4 -24,-11 -34,-19l0 0c-12,-9 -20,-19 -26,-31 -5,-11 -8,-23 -8,-36l0 -142 -827 0 0 142c0,13 -3,25 -9,36 -5,11 -14,22 -24,30 -11,9 -22,15 -35,20 -13,5 -27,7 -41,7 -29,0 -56,-9 -77,-27 -11,-9 -19,-19 -25,-30 -6,-11 -9,-23 -9,-36l0 -142 -86 0c-14,0 -28,-2 -42,-7 -12,-5 -24,-12 -34,-21l0 0c-11,-9 -19,-19 -24,-30l0 0c-6,-11 -8,-23 -8,-36 0,-12 3,-24 8,-35l0 0c6,-11 14,-21 24,-30 11,-8 22,-15 35,-19 13,-5 27,-7 41,-7l86 0 0 -377c0,-13 3,-25 9,-36 5,-11 14,-21 25,-30 10,-9 22,-16 34,-20 14,-5 28,-8 43,-8 14,0 28,3 41,8l1 0c12,4 24,11 35,20 10,9 18,19 23,30 6,12 9,24 9,36l0 377 827 0 0 -377c0,-13 3,-24 8,-36 6,-11 14,-21 24,-30 11,-9 23,-16 36,-20 13,-5 27,-8 42,-8 15,0 29,3 42,8 13,4 25,11 35,20 11,9 19,19 24,30 6,12 9,23 9,36l0 704zm-1505 0c0,13 -3,25 -9,36l0 0c-6,11 -13,21 -24,30 -10,9 -22,16 -35,20l0 0c-13,5 -27,7 -41,7 -30,0 -56,-9 -78,-27 -11,-9 -19,-19 -25,-30 -6,-11 -9,-23 -9,-36l0 -360c0,-48 -4,-88 -12,-121 -8,-30 -20,-54 -35,-71 -16,-19 -40,-34 -71,-44 -34,-11 -77,-16 -129,-16 -51,0 -94,5 -128,16 -31,10 -55,25 -72,44 -15,17 -26,41 -34,71 -8,33 -13,73 -13,121l0 360c0,13 -3,25 -9,36 -5,11 -13,21 -24,30 -11,9 -23,16 -36,20 -13,5 -27,7 -42,7 -14,0 -28,-2 -41,-7l0 0c-13,-4 -24,-11 -35,-20 -10,-8 -19,-18 -24,-30l0 0c-6,-11 -9,-23 -9,-36l0 -360c0,-48 -4,-88 -13,-121 -8,-30 -19,-54 -34,-71l0 0c-16,-19 -40,-34 -71,-44 -34,-11 -77,-16 -129,-16 -51,0 -94,5 -129,16 -30,10 -54,25 -71,44l0 0c-16,17 -27,41 -35,71 -9,33 -14,73 -14,121l0 360c0,13 -2,25 -8,36 -5,11 -13,21 -24,30 -10,9 -22,15 -35,20 -13,5 -27,7 -41,7 -15,0 -29,-2 -42,-7 -13,-4 -25,-11 -36,-20 -10,-9 -18,-19 -24,-30 -5,-11 -8,-23 -8,-36l0 -360c0,-67 8,-127 24,-178 17,-54 43,-99 78,-136l0 0c40,-42 91,-73 153,-94 61,-20 131,-30 212,-30 95,0 175,14 241,42 45,18 84,43 115,74 32,-31 71,-56 116,-74 67,-28 148,-42 242,-42 81,0 152,10 212,30 63,21 114,52 154,94l0 0c34,37 60,82 77,136 16,51 25,111 25,178l0 360zm-2031 -529c0,-12 -1,-21 -3,-29 -2,-7 -5,-12 -8,-16l0 0c-8,-11 -27,-19 -57,-26 -38,-8 -89,-12 -154,-12l-705 0 0 167 705 0c41,0 74,-1 101,-4 26,-2 46,-5 61,-9l0 -1c21,-6 37,-14 46,-26 10,-11 14,-25 14,-44zm220 528c0,13 -3,25 -8,37 -6,11 -14,21 -25,30 -10,8 -22,15 -35,20 -14,5 -28,7 -42,7 -19,0 -36,-3 -52,-11 -15,-7 -28,-17 -39,-30l-257 -312 -689 0 0 260c0,13 -3,25 -8,36 -6,11 -14,21 -24,30 -11,9 -22,15 -35,20 -14,5 -27,7 -42,7 -14,0 -28,-2 -42,-7 -13,-4 -25,-11 -35,-20 -10,-9 -18,-19 -24,-30 -6,-11 -8,-23 -8,-36l0 -704c0,-12 2,-24 8,-36 6,-11 13,-21 24,-30 10,-9 22,-16 35,-20 13,-5 27,-8 42,-8l814 0c141,0 248,22 322,64 80,47 120,115 120,206 0,72 -25,131 -75,175 -34,31 -79,54 -136,70l190 229 1 1c6,8 11,16 15,24 3,10 5,19 5,28z"/>
  <path class="fil1" d="M1964 4810l7611 0c31,0 57,26 57,57l0 0c0,31 -26,57 -57,57l-7611 0c-32,0 -57,-26 -57,-57l0 0c0,-31 25,-57 57,-57z"/>
  <path class="fil2" d="M9532 5214c0,-10 0,-18 -2,-25 -1,-7 -4,-13 -7,-18l0 0c-10,-17 -32,-30 -65,-39 -35,-9 -81,-14 -140,-14 -57,0 -102,5 -136,13 -33,9 -55,21 -67,38 -3,5 -6,12 -8,19l0 0c-2,8 -3,16 -3,26 0,9 1,18 3,26 2,7 5,14 8,19 12,17 34,29 67,37 34,9 79,13 136,13 59,0 105,-4 140,-13 33,-9 55,-22 65,-39l0 0c3,-5 6,-11 7,-18 2,-8 2,-16 2,-25zm56 0c0,21 -5,40 -14,57 -9,16 -23,31 -41,42 -21,13 -49,23 -85,29 -36,7 -79,10 -130,10 -51,0 -94,-3 -129,-10 -36,-6 -64,-16 -85,-29 -18,-11 -32,-26 -41,-42 -9,-17 -14,-36 -14,-57 0,-22 5,-40 14,-57 9,-16 23,-30 41,-42l0 0c21,-13 49,-23 85,-29 36,-7 79,-10 129,-10 102,0 174,13 215,39l0 0c18,12 32,26 41,42 9,17 14,35 14,57zm-1138 -1c0,-10 -1,-19 -3,-26 -2,-8 -5,-14 -8,-19 -11,-16 -33,-29 -65,-37 -34,-8 -78,-13 -134,-13l-150 0 0 191 150 0c56,0 100,-4 133,-13 32,-9 54,-22 65,-39l0 0c4,-5 7,-12 9,-19l0 0c2,-8 3,-16 3,-25zm54 0c0,27 -7,50 -21,70 -15,19 -36,34 -65,45l0 0c-20,8 -46,14 -75,18 -30,4 -64,6 -103,6l-178 0c-3,0 -7,-1 -10,-2 -3,-1 -6,-2 -9,-5 -3,-2 -5,-4 -6,-6 -1,-3 -2,-6 -2,-9l0 -233c0,-2 1,-5 2,-8 1,-2 3,-4 6,-7 3,-2 6,-3 9,-4l0 0c3,-2 7,-2 10,-2l178 0c39,0 72,2 102,6 30,3 55,9 75,17l0 0c29,11 51,26 65,45 15,19 22,42 22,69zm-1069 19l0 -21c0,-9 -1,-17 -2,-24 -1,-7 -4,-13 -6,-18l0 0c-9,-17 -26,-29 -52,-38 -28,-8 -65,-13 -111,-13 -46,0 -83,5 -110,13 -26,8 -44,19 -52,35l0 0c-3,6 -6,12 -7,20 -2,7 -3,16 -3,25l0 21 343 0zm55 98c0,3 -1,6 -3,9 -1,2 -3,4 -6,7 -2,2 -5,3 -9,4 -3,1 -6,2 -10,2 -4,0 -7,-1 -10,-2l0 0c-3,-1 -6,-2 -9,-5 -3,-2 -5,-4 -6,-6l0 0c-1,-3 -2,-6 -2,-9l0 -56 -343 0 0 56c0,3 0,6 -2,9 -1,2 -3,4 -6,6 -2,3 -5,4 -8,5 -4,1 -7,2 -11,2 -3,0 -7,-1 -10,-2l0 0c-4,-1 -7,-2 -9,-5 -3,-2 -5,-4 -6,-6 -2,-3 -2,-6 -2,-9l0 -119c0,-25 5,-47 17,-65 11,-19 28,-33 51,-44l0 0c17,-9 40,-15 66,-20 26,-4 57,-6 92,-6 34,0 65,2 91,6 26,5 49,11 67,20l0 0c22,11 39,25 51,44 11,18 17,40 17,65l0 119zm-1053 -175c0,-4 0,-8 -1,-12 -1,-3 -3,-6 -5,-8l0 0c-5,-5 -14,-9 -27,-12 -15,-3 -35,-5 -59,-5l-267 0 0 75 267 0c15,0 27,-1 38,-2 10,-1 18,-2 24,-3l0 0c10,-3 18,-7 23,-12 5,-6 7,-12 7,-21zm56 175c0,3 -1,6 -3,8l0 0c-1,3 -3,5 -6,7 -3,2 -6,4 -9,5l0 0c-3,1 -7,2 -10,2 -5,0 -9,-1 -13,-3l0 0c-4,-1 -8,-4 -10,-7l-97 -107 -267 0 0 95c0,3 0,6 -2,9l0 0c-1,2 -3,4 -6,6 -2,3 -5,4 -8,5 -4,1 -7,2 -11,2 -3,0 -7,-1 -10,-2l0 0c-3,-1 -6,-2 -9,-5 -3,-2 -5,-4 -6,-6 -1,-3 -2,-6 -2,-9l0 -233c0,-2 1,-5 2,-8 1,-2 3,-4 6,-7 3,-2 6,-3 9,-4l0 0c3,-2 7,-2 10,-2l294 0c48,0 85,6 109,19 26,14 39,34 39,61 0,21 -8,38 -24,51 -14,12 -34,20 -60,24l78 87 0 0c2,2 3,4 4,6l0 0c1,2 2,4 2,6zm-1058 -116c0,-10 0,-18 -2,-25 -1,-7 -4,-13 -7,-18l0 0c-10,-17 -32,-30 -65,-39 -35,-9 -81,-14 -140,-14 -57,0 -102,5 -136,13 -33,9 -55,21 -67,38 -3,5 -6,12 -8,19 -2,8 -3,16 -3,26 0,19 4,34 11,45 12,17 34,29 67,37 34,9 79,13 136,13 59,0 105,-4 140,-13 33,-9 55,-22 65,-39l0 0c3,-5 6,-11 7,-18 2,-8 2,-16 2,-25zm56 0c0,21 -5,40 -14,57 -9,16 -23,31 -41,42 -21,13 -49,23 -85,29 -36,7 -79,10 -130,10 -51,0 -94,-3 -129,-10 -36,-6 -64,-16 -85,-29 -18,-11 -32,-26 -41,-42 -9,-17 -14,-36 -14,-57 0,-22 5,-40 14,-57 9,-16 23,-30 41,-42l0 0c21,-13 49,-23 85,-29 36,-7 79,-10 129,-10 102,0 174,13 215,39l0 0c18,12 32,26 41,42 9,17 14,35 14,57zm-1036 116c0,3 0,6 -2,9l0 0c-1,2 -3,4 -6,6 -2,3 -5,4 -8,5 -4,1 -7,2 -11,2l-378 0c-4,0 -7,-1 -11,-2 -3,-1 -6,-2 -8,-5 -3,-2 -5,-4 -6,-6 -2,-3 -2,-6 -2,-9l0 -233c0,-2 0,-5 2,-8 1,-2 3,-4 6,-7 2,-2 5,-3 9,-4 3,-1 6,-2 10,-2 4,0 7,1 10,2 4,1 7,2 9,4 3,3 5,5 6,7l0 0c1,3 2,6 2,8l0 212 351 0c4,0 7,1 11,2 3,1 6,2 8,5 3,2 5,4 6,6 2,3 2,6 2,8zm-1021 -116c0,-10 -1,-18 -2,-25 -2,-7 -4,-13 -7,-18l0 0c-10,-17 -32,-30 -66,-39 -34,-9 -81,-14 -139,-14 -57,0 -102,5 -137,13 -33,9 -55,21 -66,38 -4,5 -6,12 -8,19 -2,8 -3,16 -3,26 0,19 4,34 11,45 11,17 33,29 66,37 35,9 80,13 137,13 58,0 105,-4 139,-13 34,-9 56,-22 66,-39l0 0c3,-5 5,-11 7,-18 1,-8 2,-16 2,-25zm55 0c0,21 -4,40 -13,57 -10,16 -23,31 -41,42 -21,13 -49,23 -85,29 -36,7 -79,10 -130,10 -51,0 -94,-3 -129,-10 -36,-6 -65,-16 -85,-29 -18,-11 -32,-26 -41,-42 -9,-17 -14,-36 -14,-57 0,-22 5,-40 14,-57 9,-16 23,-30 41,-42l0 0c21,-13 49,-23 85,-29 35,-7 78,-10 129,-10 102,0 173,13 214,39l1 0c18,12 31,26 41,42 9,17 13,35 13,57zm-1101 90l0 0m18 -10c0,3 -1,6 -2,9 -2,3 -4,5 -7,7l0 0c-2,2 -5,4 -9,6 -3,2 -7,4 -12,6l0 0c-22,10 -49,17 -82,22 -33,5 -71,8 -115,8 -51,0 -94,-3 -129,-10 -36,-6 -65,-16 -85,-29 -18,-11 -32,-26 -41,-42 -9,-17 -14,-36 -14,-57 0,-22 5,-41 14,-57 9,-17 23,-31 41,-42 20,-13 49,-23 85,-30 35,-6 78,-9 129,-9 88,0 153,10 197,30l0 0c2,1 5,2 9,4 3,2 7,4 11,7l1 0c3,2 5,5 7,8 1,2 2,5 2,8 0,3 -1,6 -2,8l0 0c-2,3 -4,5 -6,7 -3,2 -6,4 -9,5l0 0c-3,1 -7,1 -10,1 -3,0 -6,0 -9,-1 -3,-1 -6,-2 -8,-4 -3,-1 -7,-3 -10,-5 -3,-1 -6,-3 -9,-4l0 0c-17,-7 -39,-12 -66,-16 -27,-4 -60,-6 -98,-6 -55,0 -100,4 -133,13 -33,8 -56,19 -67,35 -5,6 -8,13 -11,20 -2,8 -3,17 -3,28 0,10 1,19 3,27 3,8 6,15 11,21 11,15 34,27 67,35 33,8 78,12 133,12 38,0 71,-2 98,-6 27,-3 49,-9 66,-16l0 0c3,-1 6,-2 9,-4 3,-2 7,-3 10,-5l0 0c2,-2 5,-3 8,-4 3,0 6,-1 9,-1 3,0 7,1 10,2 3,1 6,2 9,4 2,2 4,5 6,7 1,3 2,6 2,8z"/>
 </g>
</svg>
