<?xml version="1.0" encoding="UTF-8"?>
<svg xmlns="http://www.w3.org/2000/svg" xmlns:xlink="http://www.w3.org/1999/xlink" width="792pt" height="612pt" viewBox="0 0 792 612" version="1.1">
<g id="surface1">
<path style=" stroke:none;fill-rule:evenodd;fill:rgb(74.902344%,3.921509%,18.823242%);fill-opacity:1;" d="M 260.355469 87.605469 C 258.742188 89.925781 257.007812 93.890625 255.78125 96.65625 C 251.222656 106.921875 248.765625 119.378906 248.78125 130.90625 C 248.789062 139.433594 250.039062 147.398438 252.214844 154.988281 C 253.65625 160.007812 257.484375 169.917969 260.367188 173.984375 C 264.671875 182.136719 271.558594 190.054688 279.105469 196.503906 L 391.445312 196.503906 C 392.132812 195.929688 392.882812 195.296875 393.746094 194.582031 L 401.035156 187.042969 C 403.757812 183.613281 404.816406 182.4375 407.398438 178.570312 C 408.246094 177.296875 409.40625 175.082031 410.265625 174.066406 C 411.511719 171.109375 414.242188 167.058594 415.429688 163.265625 C 414.058594 162.539062 411.902344 161.789062 410.378906 161.175781 L 375.476562 147.101562 C 374.972656 147.757812 374.261719 149.542969 373.816406 150.402344 C 373.277344 151.445312 372.777344 152.40625 372.144531 153.4375 C 369.179688 158.28125 367.003906 160.3125 363.195312 163.816406 C 361.875 165.03125 359.496094 166.730469 357.714844 167.777344 C 328.246094 185.160156 291.949219 164.171875 292.039062 130.679688 C 292.136719 95.390625 330.992188 76.984375 357.863281 93.886719 C 364.15625 97.847656 368.503906 102.320312 372.226562 108.292969 C 373.234375 109.910156 374.550781 113.261719 375.476562 114.476562 L 415.425781 98.328125 C 414.914062 96.617188 413.738281 94.3125 412.964844 92.722656 C 412.144531 91.039062 410.9375 89.128906 410.285156 87.511719 C 409.425781 86.546875 408.214844 84.21875 407.414062 83 C 391.832031 59.351562 364.660156 44.242188 335.222656 44.28125 C 317.476562 44.300781 301.464844 49.785156 289.246094 57.53125 C 278.234375 64.511719 266.328125 76.039062 260.355469 87.605469 "/>
<path style=" stroke:none;fill-rule:evenodd;fill:rgb(100%,84.313965%,0%);fill-opacity:1;" d="M 375.554688 147.074219 C 375.714844 146.027344 376.359375 144.640625 376.699219 143.503906 C 378.796875 136.480469 379.242188 129.328125 377.75 122.128906 C 377.199219 119.484375 375.652344 115.050781 375.554688 114.453125 C 374.632812 113.234375 373.316406 109.886719 372.304688 108.265625 C 368.585938 102.296875 364.234375 97.820312 357.941406 93.863281 C 331.070312 76.957031 292.214844 95.367188 292.121094 130.65625 C 292.027344 164.144531 328.328125 185.132812 357.796875 167.753906 C 359.574219 166.703125 361.953125 165.007812 363.277344 163.792969 C 367.082031 160.289062 369.257812 158.253906 372.226562 153.414062 C 372.859375 152.378906 373.355469 151.421875 373.894531 150.378906 C 374.339844 149.515625 375.054688 147.734375 375.554688 147.074219 "/>
<path style=" stroke:none;fill-rule:evenodd;fill:rgb(0%,13.563538%,38.156128%);fill-opacity:1;" d="M 316.378906 60.636719 C 343.695312 51 371.675781 60.109375 388.191406 81.347656 C 394.75 89.785156 391.464844 86.21875 386.636719 82.988281 C 368.777344 71.058594 344.554688 67.8125 320.472656 76.320312 C 295.398438 85.183594 276.484375 104.902344 267.617188 127.328125 C 266.128906 131.09375 265.691406 133.925781 266.257812 127.347656 C 268.796875 97.808594 288.066406 70.621094 316.378906 60.636719 "/>
<path style=" stroke:none;fill-rule:nonzero;fill:rgb(0%,13.563538%,38.156128%);fill-opacity:1;" d="M 170.21875 205.839844 C 186.566406 205.839844 202.910156 205.839844 219.304688 205.839844 C 227.757812 205.839844 233.941406 207.578125 237.878906 211.066406 C 241.789062 214.53125 243.730469 218.695312 243.730469 223.59375 C 243.730469 228.871094 241.667969 233.492188 237.507812 237.542969 C 233.355469 241.585938 226.734375 244.332031 217.585938 245.6875 C 220.28125 247.371094 223.246094 250.566406 226.457031 255.246094 C 229.65625 259.910156 233.191406 266.058594 236.996094 273.65625 C 227.570312 274.101562 218.191406 274.535156 208.808594 274.976562 C 206.441406 270.097656 203.691406 264.765625 200.496094 258.953125 C 197.28125 253.105469 194.867188 249.726562 193.253906 248.820312 C 191.664062 247.929688 189.722656 247.507812 187.449219 247.574219 C 186.9375 247.585938 186.472656 247.609375 186.007812 247.625 C 184.753906 252.4375 183.5 257.269531 182.292969 262.097656 C 181.082031 266.941406 179.878906 271.792969 178.671875 276.652344 C 169.753906 277.226562 160.839844 277.792969 151.921875 278.355469 C 154.941406 266.125 158 253.929688 161.023438 241.824219 C 164.035156 229.769531 167.152344 217.769531 170.21875 205.839844 Z M 189.492188 234.390625 C 191.164062 234.355469 192.835938 234.3125 194.550781 234.273438 C 203.050781 234.082031 208.53125 233.652344 210.992188 232.984375 C 213.5 232.296875 215.355469 231.214844 216.5625 229.707031 C 217.773438 228.195312 218.421875 226.769531 218.421875 225.390625 C 218.421875 223.636719 217.667969 222.277344 216.191406 221.285156 C 214.742188 220.3125 211.59375 219.820312 206.765625 219.871094 C 202.214844 219.921875 197.710938 219.972656 193.207031 220.023438 C 191.953125 224.804688 190.699219 229.589844 189.492188 234.390625 Z M 362.148438 205.839844 C 359.039062 216.644531 355.878906 227.457031 352.816406 238.269531 C 349.75 249.09375 346.59375 259.945312 343.527344 270.792969 C 336.144531 270.886719 328.761719 270.972656 321.375 271.105469 C 324.023438 262.75 326.671875 254.417969 329.316406 246.101562 C 331.964844 237.789062 334.613281 229.496094 337.304688 221.199219 C 337.164062 221.199219 337.027344 221.199219 336.933594 221.199219 C 331.59375 229.507812 326.199219 237.824219 320.910156 246.1875 C 315.613281 254.574219 310.277344 263.003906 304.984375 271.445312 C 298.4375 271.585938 291.886719 271.757812 285.339844 271.953125 C 284.691406 263.5625 284.039062 255.160156 283.4375 246.746094 C 282.832031 238.328125 282.230469 229.914062 281.625 221.480469 C 281.53125 221.480469 281.4375 221.480469 281.394531 221.480469 C 279.304688 229.945312 277.210938 238.40625 275.171875 246.898438 C 273.125 255.398438 271.039062 263.910156 268.992188 272.441406 C 261.5625 272.707031 254.179688 272.992188 246.796875 273.273438 C 249.859375 261.945312 252.921875 250.640625 255.992188 239.386719 C 259.050781 228.175781 262.121094 216.984375 265.230469 205.839844 C 276.050781 205.839844 286.871094 205.839844 297.738281 205.839844 C 298.25 212.792969 298.808594 219.742188 299.320312 226.679688 C 299.828125 233.613281 300.433594 240.554688 300.988281 247.480469 C 301.035156 247.480469 301.128906 247.472656 301.222656 247.472656 C 305.773438 240.488281 310.324219 233.519531 314.875 226.578125 C 319.425781 219.644531 323.976562 212.734375 328.574219 205.839844 C 339.765625 205.839844 350.957031 205.839844 362.148438 205.839844 Z M 462.503906 205.839844 C 459.394531 216.773438 456.28125 227.691406 453.214844 238.566406 C 450.152344 249.429688 447.039062 260.269531 443.976562 271.082031 C 435.011719 270.945312 426.09375 270.835938 417.179688 270.722656 C 418.433594 266.347656 419.6875 261.960938 420.941406 257.582031 C 422.195312 253.195312 423.449219 248.796875 424.703125 244.40625 C 415.042969 244.332031 405.382812 244.296875 395.773438 244.265625 C 394.515625 248.652344 393.265625 253.042969 392.054688 257.421875 C 390.851562 261.792969 389.640625 266.175781 388.433594 270.554688 C 379.425781 270.554688 370.417969 270.589844 361.40625 270.625 C 364.472656 259.828125 367.582031 249.023438 370.648438 238.226562 C 373.710938 227.433594 376.871094 216.628906 379.980469 205.839844 C 388.898438 205.839844 397.816406 205.839844 406.730469 205.839844 C 405.617188 209.667969 404.5 213.484375 403.433594 217.296875 C 402.367188 221.113281 401.296875 224.925781 400.230469 228.742188 C 409.796875 228.753906 419.410156 228.792969 429.019531 228.835938 C 430.136719 225.007812 431.25 221.175781 432.363281 217.347656 C 433.480469 213.519531 434.640625 209.683594 435.800781 205.839844 C 444.671875 205.839844 453.585938 205.839844 462.503906 205.839844 Z M 478.246094 205.839844 C 491.296875 205.839844 504.34375 205.839844 517.441406 205.839844 C 524.777344 205.839844 530.351562 206.527344 534.113281 207.90625 C 537.875 209.289062 540.695312 211.359375 542.65625 214.078125 C 544.640625 216.828125 545.628906 220.160156 545.628906 224.136719 C 545.628906 229.269531 543.855469 233.792969 540.335938 237.726562 C 536.84375 241.625 532.4375 244.375 527.101562 245.96875 C 521.800781 247.550781 514.421875 248.253906 504.996094 248.03125 C 501.046875 247.9375 497.101562 247.855469 493.199219 247.785156 C 492.039062 251.84375 490.925781 255.90625 489.808594 259.964844 C 488.699219 264.011719 487.582031 268.066406 486.464844 272.105469 C 477.503906 271.84375 468.539062 271.597656 459.578125 271.410156 C 462.691406 260.546875 465.804688 249.648438 468.914062 238.734375 C 472.027344 227.804688 475.136719 216.832031 478.246094 205.839844 Z M 496.960938 234.679688 C 499.933594 234.714844 502.953125 234.769531 505.96875 234.816406 C 510.148438 234.882812 513.589844 233.992188 516.28125 232.105469 C 518.976562 230.214844 520.320312 227.921875 520.320312 225.253906 C 520.320312 221.222656 517.488281 219.175781 511.914062 219.132812 C 508.386719 219.105469 504.902344 219.082031 501.417969 219.050781 C 499.933594 224.273438 498.445312 229.480469 496.960938 234.679688 Z M 616.308594 278.355469 C 607.578125 277.804688 598.847656 277.261719 590.164062 276.726562 C 589.746094 272.839844 589.328125 268.953125 588.957031 265.066406 C 579.574219 264.621094 570.195312 264.203125 560.859375 263.773438 C 558.585938 267.441406 556.355469 271.121094 554.128906 274.765625 C 544.5625 274.324219 534.996094 273.882812 525.429688 273.46875 C 533.507812 262.496094 541.710938 251.4375 549.761719 240.210938 C 557.871094 228.90625 566.015625 217.433594 574.140625 205.839844 C 583.617188 205.839844 593.089844 205.839844 602.5625 205.839844 C 604.839844 217.8125 607.121094 229.835938 609.390625 241.886719 C 611.667969 253.996094 613.988281 266.160156 616.308594 278.355469 Z M 587.285156 249.980469 C 586.820312 245.671875 586.355469 241.371094 585.9375 237.074219 C 585.519531 232.78125 585.054688 228.480469 584.636719 224.179688 C 584.542969 224.179688 584.453125 224.179688 584.40625 224.179688 C 581.898438 228.421875 579.394531 232.652344 576.929688 236.855469 C 574.472656 241.050781 572.007812 245.222656 569.542969 249.378906 C 575.441406 249.574219 581.339844 249.777344 587.285156 249.980469 "/>
<path style="fill:none;stroke-width:0.216;stroke-linecap:butt;stroke-linejoin:miter;stroke:rgb(0%,13.563538%,38.156128%);stroke-opacity:1;stroke-miterlimit:2.613126;" d="M 172.230469 302.085938 C 174.257812 301.945312 176.289062 301.804688 178.316406 301.660156 C 177.117188 299.617188 175.328125 298.042969 172.96875 296.988281 C 170.578125 295.917969 167.804688 295.414062 164.621094 295.414062 C 161.023438 295.414062 158.214844 296.035156 156.179688 297.257812 C 155.167969 297.871094 154.382812 298.609375 153.921875 299.492188 C 153.460938 300.371094 153.183594 301.390625 153.183594 302.546875 C 153.183594 303.488281 153.324219 304.394531 153.644531 305.265625 C 153.96875 306.144531 154.53125 306.984375 155.210938 307.808594 C 156.5625 309.441406 158.445312 310.761719 160.839844 311.757812 C 163.238281 312.753906 165.867188 313.363281 168.679688 313.539062 C 171.859375 313.742188 174.441406 313.375 176.378906 312.457031 C 178.363281 311.515625 179.515625 310.148438 179.886719 308.34375 C 177.949219 308.144531 176.011719 307.949219 174.074219 307.753906 C 173.75 308.78125 173.152344 309.5 172.230469 309.921875 C 171.308594 310.34375 170.109375 310.511719 168.585938 310.429688 C 166.925781 310.34375 165.363281 309.949219 163.929688 309.289062 C 162.457031 308.613281 161.347656 307.644531 160.46875 306.355469 C 159.597656 305.070312 159.179688 303.8125 159.179688 302.570312 C 159.179688 301.214844 159.734375 300.175781 160.839844 299.449219 C 161.945312 298.71875 163.375 298.359375 165.035156 298.378906 C 166.601562 298.394531 168.035156 298.707031 169.324219 299.328125 C 170.617188 299.953125 171.585938 300.875 172.230469 302.085938 Z M 214.65625 303.6875 C 214.65625 304.875 214.929688 306.144531 215.441406 307.484375 C 216.128906 309.289062 217.195312 310.867188 218.578125 312.246094 C 219.960938 313.628906 221.714844 314.753906 223.878906 315.648438 C 226.003906 316.53125 228.398438 317.058594 231.121094 317.199219 C 234.761719 317.394531 237.71875 316.730469 239.929688 315.183594 C 241.039062 314.40625 241.867188 313.472656 242.417969 312.390625 C 242.972656 311.3125 243.292969 310.082031 243.292969 308.710938 C 243.292969 307.566406 243.066406 306.4375 242.742188 305.324219 C 242.417969 304.214844 241.867188 303.117188 241.128906 302.042969 C 239.652344 299.902344 237.671875 298.246094 235.179688 297.105469 C 232.691406 295.964844 229.828125 295.414062 226.691406 295.414062 C 223.925781 295.414062 221.664062 295.839844 219.777344 296.710938 C 217.929688 297.558594 216.578125 298.609375 215.808594 299.875 C 215.054688 301.121094 214.65625 302.398438 214.65625 303.6875 Z M 220.652344 303.902344 C 220.652344 302.488281 221.292969 301.308594 222.496094 300.382812 C 223.734375 299.429688 225.355469 298.972656 227.386719 298.988281 C 229 299.003906 230.566406 299.40625 232.042969 300.1875 C 233.5625 300.988281 234.796875 302.191406 235.777344 303.78125 C 236.777344 305.402344 237.253906 306.949219 237.253906 308.457031 C 237.253906 310.140625 236.65625 311.441406 235.410156 312.347656 C 234.167969 313.25 232.597656 313.652344 230.660156 313.566406 C 227.707031 313.4375 225.300781 312.363281 223.417969 310.339844 C 222.488281 309.34375 221.804688 308.296875 221.34375 307.226562 C 220.882812 306.160156 220.652344 305.046875 220.652344 303.902344 Z M 277.050781 295.832031 C 278.066406 299.695312 279.082031 303.570312 280.097656 307.460938 C 281.113281 311.359375 282.171875 315.28125 283.230469 319.214844 C 285.214844 319.289062 287.242188 319.363281 289.273438 319.433594 C 288.398438 316.136719 287.523438 312.835938 286.691406 309.554688 C 285.863281 306.28125 284.984375 303.015625 284.152344 299.757812 C 289.132812 299.792969 294.113281 299.824219 299.140625 299.855469 C 298.773438 298.519531 298.402344 297.183594 298.082031 295.84375 C 291.070312 295.839844 284.0625 295.835938 277.050781 295.832031 Z M 336.035156 305.648438 C 336.035156 307.125 336.308594 308.683594 336.820312 310.328125 C 337.507812 312.535156 338.570312 314.449219 339.953125 316.097656 C 341.335938 317.738281 343.136719 319.039062 345.257812 320.019531 C 347.378906 320.996094 349.777344 321.511719 352.496094 321.554688 C 356.140625 321.609375 359.09375 320.664062 361.304688 318.730469 C 362.414062 317.765625 363.242188 316.636719 363.796875 315.347656 C 364.347656 314.058594 364.671875 312.609375 364.671875 311.003906 C 364.671875 309.660156 364.441406 308.339844 364.121094 307.042969 C 363.796875 305.746094 363.242188 304.472656 362.503906 303.21875 C 361.03125 300.710938 359.046875 298.777344 356.554688 297.425781 C 354.066406 296.078125 351.253906 295.414062 348.070312 295.414062 C 345.351562 295.414062 343.039062 295.933594 341.152344 297.003906 C 339.304688 298.054688 337.992188 299.375 337.234375 300.925781 C 336.46875 302.492188 336.035156 304.058594 336.035156 305.648438 Z M 342.03125 305.800781 C 342.03125 304.074219 342.667969 302.621094 343.875 301.472656 C 345.109375 300.296875 346.734375 299.730469 348.761719 299.734375 C 350.375 299.738281 351.953125 300.191406 353.464844 301.132812 C 354.949219 302.050781 356.207031 303.464844 357.203125 305.363281 C 358.191406 307.246094 358.632812 309.089844 358.632812 310.878906 C 358.632812 312.878906 358.035156 314.441406 356.785156 315.566406 C 355.542969 316.691406 353.972656 317.238281 352.039062 317.210938 C 349.085938 317.171875 346.6875 315.957031 344.84375 313.578125 C 343.917969 312.386719 343.183594 311.144531 342.722656 309.847656 C 342.261719 308.558594 342.03125 307.203125 342.03125 305.800781 Z M 404.472656 295.871094 C 402.441406 295.871094 400.414062 295.871094 398.429688 295.871094 C 399.445312 300.101562 400.460938 304.332031 401.472656 308.554688 C 402.488281 312.773438 403.503906 316.992188 404.5625 321.207031 C 408.898438 321.164062 413.234375 321.117188 417.613281 321.042969 C 419.875 321.007812 421.625 320.78125 422.871094 320.367188 C 424.117188 319.953125 425.148438 319.226562 425.914062 318.15625 C 426.667969 317.105469 427.066406 315.824219 427.066406 314.332031 C 427.066406 312.203125 426.292969 310.449219 424.808594 309.089844 C 423.292969 307.703125 421.027344 306.871094 418.03125 306.566406 C 418.765625 305.964844 419.523438 305.1875 420.195312 304.195312 C 420.859375 303.222656 421.582031 302.019531 422.316406 300.632812 C 423.054688 299.242188 423.886719 297.65625 424.714844 295.867188 C 422.546875 295.867188 420.382812 295.867188 418.214844 295.867188 C 417.9375 296.574219 417.523438 297.484375 417.015625 298.589844 C 416.507812 299.695312 415.875 301.011719 415.125 302.515625 C 414.308594 304.148438 413.425781 305.261719 412.496094 305.8125 C 411.902344 306.160156 410.929688 306.320312 409.496094 306.324219 C 408.667969 306.328125 407.839844 306.332031 407.007812 306.335938 C 406.546875 304.59375 406.132812 302.84375 405.714844 301.105469 C 405.300781 299.363281 404.886719 297.613281 404.472656 295.871094 Z M 407.929688 310.113281 C 408.992188 310.109375 410.050781 310.101562 411.113281 310.09375 C 414.386719 310.070312 416.554688 310.214844 417.613281 310.539062 C 418.675781 310.859375 419.503906 311.375 420.105469 312.082031 C 420.703125 312.785156 421.027344 313.527344 421.027344 314.304688 C 421.027344 315.226562 420.5625 315.910156 419.691406 316.386719 C 419.179688 316.664062 418.03125 316.820312 416.230469 316.84375 C 414.019531 316.878906 411.804688 316.902344 409.589844 316.917969 C 409.3125 315.789062 409.035156 314.648438 408.761719 313.515625 C 408.484375 312.382812 408.207031 311.246094 407.929688 310.113281 Z M 479.410156 301.023438 C 475.492188 301.058594 471.617188 301.09375 467.742188 301.125 C 466.542969 299.367188 465.34375 297.609375 464.191406 295.847656 C 462.070312 295.847656 459.996094 295.851562 457.921875 295.851562 C 460.6875 299.871094 463.449219 303.871094 466.222656 307.828125 C 468.980469 311.765625 471.753906 315.660156 474.523438 319.523438 C 476.78125 319.433594 479.042969 319.351562 481.347656 319.265625 C 482.132812 315.332031 482.914062 311.410156 483.699219 307.503906 C 484.480469 303.601562 485.265625 299.710938 486.097656 295.832031 C 484.160156 295.835938 482.269531 295.835938 480.378906 295.835938 C 480.054688 297.5625 479.734375 299.289062 479.410156 301.023438 Z M 478.671875 304.972656 C 478.347656 306.554688 478.070312 308.136719 477.796875 309.722656 C 477.519531 311.308594 477.242188 312.898438 476.964844 314.488281 C 475.859375 312.933594 474.75 311.378906 473.691406 309.816406 C 472.628906 308.25 471.523438 306.671875 470.464844 305.097656 C 473.183594 305.054688 475.90625 305.011719 478.671875 304.972656 Z M 522.023438 295.804688 C 523.035156 299.402344 524.046875 302.984375 525.066406 306.550781 C 526.078125 310.101562 527.09375 313.632812 528.15625 317.148438 C 530.785156 317.011719 533.457031 316.871094 536.132812 316.730469 C 538.347656 316.613281 539.730469 316.519531 540.375 316.4375 C 541.574219 316.289062 542.683594 316.070312 543.648438 315.746094 C 544.574219 315.441406 545.449219 315.027344 546.230469 314.515625 C 547.015625 314.003906 547.691406 313.402344 548.261719 312.730469 C 548.847656 312.035156 549.277344 311.277344 549.597656 310.417969 C 549.921875 309.550781 550.058594 308.613281 550.058594 307.601562 C 550.058594 306.511719 549.875 305.492188 549.597656 304.53125 C 549.324219 303.570312 548.871094 302.667969 548.261719 301.835938 C 547.027344 300.152344 545.484375 298.839844 543.648438 297.832031 C 542.257812 297.070312 540.421875 296.476562 538.207031 296.105469 C 536.964844 295.894531 535.027344 295.792969 532.398438 295.792969 C 528.9375 295.796875 525.480469 295.800781 522.023438 295.804688 Z M 529.03125 299.214844 C 530.046875 299.207031 531.0625 299.199219 532.121094 299.191406 C 534.335938 299.167969 535.949219 299.253906 536.964844 299.4375 C 537.976562 299.621094 538.898438 299.976562 539.730469 300.496094 C 540.925781 301.246094 541.925781 302.253906 542.726562 303.496094 C 543.539062 304.75 543.972656 306.21875 543.972656 307.929688 C 543.972656 309.386719 543.652344 310.496094 542.957031 311.261719 C 542.269531 312.019531 541.4375 312.554688 540.46875 312.835938 C 539.734375 313.046875 538.53125 313.175781 536.734375 313.253906 C 535.535156 313.304688 534.335938 313.355469 533.183594 313.410156 C 532.488281 311.0625 531.796875 308.710938 531.105469 306.347656 C 530.414062 303.980469 529.722656 301.601562 529.03125 299.214844 Z M 585.660156 302.890625 C 585.660156 303.964844 585.933594 305.097656 586.445312 306.273438 C 587.132812 307.84375 588.195312 309.179688 589.582031 310.277344 C 590.960938 311.375 592.761719 312.1875 594.886719 312.730469 C 597.003906 313.277344 599.40625 313.457031 602.125 313.292969 C 605.769531 313.070312 608.722656 312.242188 610.980469 310.816406 C 612.089844 310.117188 612.914062 309.328125 613.46875 308.453125 C 614.023438 307.582031 614.347656 306.625 614.347656 305.574219 C 614.347656 304.699219 614.160156 303.84375 613.792969 303.007812 C 613.421875 302.171875 612.859375 301.359375 612.132812 300.546875 C 610.691406 298.925781 608.671875 297.660156 606.183594 296.769531 C 603.691406 295.875 600.878906 295.414062 597.699219 295.414062 C 594.976562 295.414062 592.667969 295.777344 590.78125 296.550781 C 588.933594 297.308594 587.644531 298.277344 586.859375 299.417969 C 586.074219 300.566406 585.660156 301.726562 585.660156 302.890625 Z M 591.703125 302.816406 C 591.703125 301.585938 592.308594 300.554688 593.546875 299.703125 C 594.753906 298.871094 596.359375 298.433594 598.390625 298.410156 C 600.003906 298.394531 601.574219 298.691406 603.09375 299.308594 C 604.574219 299.910156 605.828125 300.835938 606.828125 302.089844 C 607.8125 303.324219 608.304688 304.542969 608.304688 305.738281 C 608.304688 307.070312 607.660156 308.144531 606.414062 308.964844 C 605.167969 309.789062 603.601562 310.25 601.664062 310.351562 C 598.714844 310.503906 596.3125 309.796875 594.46875 308.222656 C 593.542969 307.429688 592.855469 306.574219 592.394531 305.671875 C 591.933594 304.773438 591.703125 303.816406 591.703125 302.816406 Z M 591.703125 302.816406 " transform="matrix(1,0,0,-1,0,612)"/>
<path style=" stroke:none;fill-rule:nonzero;fill:rgb(0%,13.563538%,38.156128%);fill-opacity:1;" d="M 172.230469 309.914062 C 174.257812 310.054688 176.289062 310.195312 178.316406 310.339844 C 177.117188 312.382812 175.328125 313.957031 172.96875 315.011719 C 170.578125 316.082031 167.804688 316.585938 164.621094 316.585938 C 161.023438 316.585938 158.214844 315.964844 156.179688 314.742188 C 155.167969 314.128906 154.382812 313.390625 153.921875 312.507812 C 153.460938 311.628906 153.183594 310.609375 153.183594 309.453125 C 153.183594 308.511719 153.324219 307.605469 153.644531 306.734375 C 153.96875 305.855469 154.53125 305.015625 155.210938 304.191406 C 156.5625 302.558594 158.445312 301.238281 160.839844 300.242188 C 163.238281 299.246094 165.867188 298.636719 168.679688 298.460938 C 171.859375 298.257812 174.441406 298.625 176.378906 299.542969 C 178.363281 300.484375 179.515625 301.851562 179.886719 303.65625 C 177.949219 303.855469 176.011719 304.050781 174.074219 304.246094 C 173.75 303.21875 173.152344 302.5 172.230469 302.078125 C 171.308594 301.65625 170.109375 301.488281 168.585938 301.570312 C 166.925781 301.65625 165.363281 302.050781 163.929688 302.710938 C 162.457031 303.386719 161.347656 304.355469 160.46875 305.644531 C 159.597656 306.929688 159.179688 308.1875 159.179688 309.429688 C 159.179688 310.785156 159.734375 311.824219 160.839844 312.550781 C 161.945312 313.28125 163.375 313.640625 165.035156 313.621094 C 166.601562 313.605469 168.035156 313.292969 169.324219 312.671875 C 170.617188 312.046875 171.585938 311.125 172.230469 309.914062 Z M 214.65625 308.3125 C 214.65625 307.125 214.929688 305.855469 215.441406 304.515625 C 216.128906 302.710938 217.195312 301.132812 218.578125 299.753906 C 219.960938 298.371094 221.714844 297.246094 223.878906 296.351562 C 226.003906 295.46875 228.398438 294.941406 231.121094 294.800781 C 234.761719 294.605469 237.71875 295.269531 239.929688 296.816406 C 241.039062 297.59375 241.867188 298.527344 242.417969 299.609375 C 242.972656 300.6875 243.292969 301.917969 243.292969 303.289062 C 243.292969 304.433594 243.066406 305.5625 242.742188 306.675781 C 242.417969 307.785156 241.867188 308.882812 241.128906 309.957031 C 239.652344 312.097656 237.671875 313.753906 235.179688 314.894531 C 232.691406 316.035156 229.828125 316.585938 226.691406 316.585938 C 223.925781 316.585938 221.664062 316.160156 219.777344 315.289062 C 217.929688 314.441406 216.578125 313.390625 215.808594 312.125 C 215.054688 310.878906 214.65625 309.601562 214.65625 308.3125 Z M 220.652344 308.097656 C 220.652344 309.511719 221.292969 310.691406 222.496094 311.617188 C 223.734375 312.570312 225.355469 313.027344 227.386719 313.011719 C 229 312.996094 230.566406 312.59375 232.042969 311.8125 C 233.5625 311.011719 234.796875 309.808594 235.777344 308.21875 C 236.777344 306.597656 237.253906 305.050781 237.253906 303.542969 C 237.253906 301.859375 236.65625 300.558594 235.410156 299.652344 C 234.167969 298.75 232.597656 298.347656 230.660156 298.433594 C 227.707031 298.5625 225.300781 299.636719 223.417969 301.660156 C 222.488281 302.65625 221.804688 303.703125 221.34375 304.773438 C 220.882812 305.839844 220.652344 306.953125 220.652344 308.097656 Z M 277.050781 316.167969 C 278.066406 312.304688 279.082031 308.429688 280.097656 304.539062 C 281.113281 300.640625 282.171875 296.71875 283.230469 292.785156 C 285.214844 292.710938 287.242188 292.636719 289.273438 292.566406 C 288.398438 295.863281 287.523438 299.164062 286.691406 302.445312 C 285.863281 305.71875 284.984375 308.984375 284.152344 312.242188 C 289.132812 312.207031 294.113281 312.175781 299.140625 312.144531 C 298.773438 313.480469 298.402344 314.816406 298.082031 316.15625 C 291.070312 316.160156 284.0625 316.164062 277.050781 316.167969 Z M 336.035156 306.351562 C 336.035156 304.875 336.308594 303.316406 336.820312 301.671875 C 337.507812 299.464844 338.570312 297.550781 339.953125 295.902344 C 341.335938 294.261719 343.136719 292.960938 345.257812 291.980469 C 347.378906 291.003906 349.777344 290.488281 352.496094 290.445312 C 356.140625 290.390625 359.09375 291.335938 361.304688 293.269531 C 362.414062 294.234375 363.242188 295.363281 363.796875 296.652344 C 364.347656 297.941406 364.671875 299.390625 364.671875 300.996094 C 364.671875 302.339844 364.441406 303.660156 364.121094 304.957031 C 363.796875 306.253906 363.242188 307.527344 362.503906 308.78125 C 361.03125 311.289062 359.046875 313.222656 356.554688 314.574219 C 354.066406 315.921875 351.253906 316.585938 348.070312 316.585938 C 345.351562 316.585938 343.039062 316.066406 341.152344 314.996094 C 339.304688 313.945312 337.992188 312.625 337.234375 311.074219 C 336.46875 309.507812 336.035156 307.941406 336.035156 306.351562 Z M 342.03125 306.199219 C 342.03125 307.925781 342.667969 309.378906 343.875 310.527344 C 345.109375 311.703125 346.734375 312.269531 348.761719 312.265625 C 350.375 312.261719 351.953125 311.808594 353.464844 310.867188 C 354.949219 309.949219 356.207031 308.535156 357.203125 306.636719 C 358.191406 304.753906 358.632812 302.910156 358.632812 301.121094 C 358.632812 299.121094 358.035156 297.558594 356.785156 296.433594 C 355.542969 295.308594 353.972656 294.761719 352.039062 294.789062 C 349.085938 294.828125 346.6875 296.042969 344.84375 298.421875 C 343.917969 299.613281 343.183594 300.855469 342.722656 302.152344 C 342.261719 303.441406 342.03125 304.796875 342.03125 306.199219 Z M 404.472656 316.128906 C 402.441406 316.128906 400.414062 316.128906 398.429688 316.128906 C 399.445312 311.898438 400.460938 307.667969 401.472656 303.445312 C 402.488281 299.226562 403.503906 295.007812 404.5625 290.792969 C 408.898438 290.835938 413.234375 290.882812 417.613281 290.957031 C 419.875 290.992188 421.625 291.21875 422.871094 291.632812 C 424.117188 292.046875 425.148438 292.773438 425.914062 293.84375 C 426.667969 294.894531 427.066406 296.175781 427.066406 297.667969 C 427.066406 299.796875 426.292969 301.550781 424.808594 302.910156 C 423.292969 304.296875 421.027344 305.128906 418.03125 305.433594 C 418.765625 306.035156 419.523438 306.8125 420.195312 307.804688 C 420.859375 308.777344 421.582031 309.980469 422.316406 311.367188 C 423.054688 312.757812 423.886719 314.34375 424.714844 316.132812 C 422.546875 316.132812 420.382812 316.132812 418.214844 316.132812 C 417.9375 315.425781 417.523438 314.515625 417.015625 313.410156 C 416.507812 312.304688 415.875 310.988281 415.125 309.484375 C 414.308594 307.851562 413.425781 306.738281 412.496094 306.1875 C 411.902344 305.839844 410.929688 305.679688 409.496094 305.675781 C 408.667969 305.671875 407.839844 305.667969 407.007812 305.664062 C 406.546875 307.40625 406.132812 309.15625 405.714844 310.894531 C 405.300781 312.636719 404.886719 314.386719 404.472656 316.128906 Z M 407.929688 301.886719 C 408.992188 301.890625 410.050781 301.898438 411.113281 301.90625 C 414.386719 301.929688 416.554688 301.785156 417.613281 301.460938 C 418.675781 301.140625 419.503906 300.625 420.105469 299.917969 C 420.703125 299.214844 421.027344 298.472656 421.027344 297.695312 C 421.027344 296.773438 420.5625 296.089844 419.691406 295.613281 C 419.179688 295.335938 418.03125 295.179688 416.230469 295.15625 C 414.019531 295.121094 411.804688 295.097656 409.589844 295.082031 C 409.3125 296.210938 409.035156 297.351562 408.761719 298.484375 C 408.484375 299.617188 408.207031 300.753906 407.929688 301.886719 Z M 479.410156 310.976562 C 475.492188 310.941406 471.617188 310.90625 467.742188 310.875 C 466.542969 312.632812 465.34375 314.390625 464.191406 316.152344 C 462.070312 316.152344 459.996094 316.148438 457.921875 316.148438 C 460.6875 312.128906 463.449219 308.128906 466.222656 304.171875 C 468.980469 300.234375 471.753906 296.339844 474.523438 292.476562 C 476.78125 292.566406 479.042969 292.648438 481.347656 292.734375 C 482.132812 296.667969 482.914062 300.589844 483.699219 304.496094 C 484.480469 308.398438 485.265625 312.289062 486.097656 316.167969 C 484.160156 316.164062 482.269531 316.164062 480.378906 316.164062 C 480.054688 314.4375 479.734375 312.710938 479.410156 310.976562 Z M 478.671875 307.027344 C 478.347656 305.445312 478.070312 303.863281 477.796875 302.277344 C 477.519531 300.691406 477.242188 299.101562 476.964844 297.511719 C 475.859375 299.066406 474.75 300.621094 473.691406 302.183594 C 472.628906 303.75 471.523438 305.328125 470.464844 306.902344 C 473.183594 306.945312 475.90625 306.988281 478.671875 307.027344 Z M 522.023438 316.195312 C 523.035156 312.597656 524.046875 309.015625 525.066406 305.449219 C 526.078125 301.898438 527.09375 298.367188 528.15625 294.851562 C 530.785156 294.988281 533.457031 295.128906 536.132812 295.269531 C 538.347656 295.386719 539.730469 295.480469 540.375 295.5625 C 541.574219 295.710938 542.683594 295.929688 543.648438 296.253906 C 544.574219 296.558594 545.449219 296.972656 546.230469 297.484375 C 547.015625 297.996094 547.691406 298.597656 548.261719 299.269531 C 548.847656 299.964844 549.277344 300.722656 549.597656 301.582031 C 549.921875 302.449219 550.058594 303.386719 550.058594 304.398438 C 550.058594 305.488281 549.875 306.507812 549.597656 307.46875 C 549.324219 308.429688 548.871094 309.332031 548.261719 310.164062 C 547.027344 311.847656 545.484375 313.160156 543.648438 314.167969 C 542.257812 314.929688 540.421875 315.523438 538.207031 315.894531 C 536.964844 316.105469 535.027344 316.207031 532.398438 316.207031 C 528.9375 316.203125 525.480469 316.199219 522.023438 316.195312 Z M 529.03125 312.785156 C 530.046875 312.792969 531.0625 312.800781 532.121094 312.808594 C 534.335938 312.832031 535.949219 312.746094 536.964844 312.5625 C 537.976562 312.378906 538.898438 312.023438 539.730469 311.503906 C 540.925781 310.753906 541.925781 309.746094 542.726562 308.503906 C 543.539062 307.25 543.972656 305.78125 543.972656 304.070312 C 543.972656 302.613281 543.652344 301.503906 542.957031 300.738281 C 542.269531 299.980469 541.4375 299.445312 540.46875 299.164062 C 539.734375 298.953125 538.53125 298.824219 536.734375 298.746094 C 535.535156 298.695312 534.335938 298.644531 533.183594 298.589844 C 532.488281 300.9375 531.796875 303.289062 531.105469 305.652344 C 530.414062 308.019531 529.722656 310.398438 529.03125 312.785156 Z M 585.660156 309.109375 C 585.660156 308.035156 585.933594 306.902344 586.445312 305.726562 C 587.132812 304.15625 588.195312 302.820312 589.582031 301.722656 C 590.960938 300.625 592.761719 299.8125 594.886719 299.269531 C 597.003906 298.722656 599.40625 298.542969 602.125 298.707031 C 605.769531 298.929688 608.722656 299.757812 610.980469 301.183594 C 612.089844 301.882812 612.914062 302.671875 613.46875 303.546875 C 614.023438 304.417969 614.347656 305.375 614.347656 306.425781 C 614.347656 307.300781 614.160156 308.15625 613.792969 308.992188 C 613.421875 309.828125 612.859375 310.640625 612.132812 311.453125 C 610.691406 313.074219 608.671875 314.339844 606.183594 315.230469 C 603.691406 316.125 600.878906 316.585938 597.699219 316.585938 C 594.976562 316.585938 592.667969 316.222656 590.78125 315.449219 C 588.933594 314.691406 587.644531 313.722656 586.859375 312.582031 C 586.074219 311.433594 585.660156 310.273438 585.660156 309.109375 Z M 591.703125 309.183594 C 591.703125 310.414062 592.308594 311.445312 593.546875 312.296875 C 594.753906 313.128906 596.359375 313.566406 598.390625 313.589844 C 600.003906 313.605469 601.574219 313.308594 603.09375 312.691406 C 604.574219 312.089844 605.828125 311.164062 606.828125 309.910156 C 607.8125 308.675781 608.304688 307.457031 608.304688 306.261719 C 608.304688 304.929688 607.660156 303.855469 606.414062 303.035156 C 605.167969 302.210938 603.601562 301.75 601.664062 301.648438 C 598.714844 301.496094 596.3125 302.203125 594.46875 303.777344 C 593.542969 304.570312 592.855469 305.425781 592.394531 306.328125 C 591.933594 307.226562 591.703125 308.183594 591.703125 309.183594 "/>
<path style=" stroke:none;fill-rule:evenodd;fill:rgb(0%,13.563538%,38.156128%);fill-opacity:1;" d="M 440.472656 181.722656 C 434.828125 181.082031 426.5 177.691406 422.5 176.109375 C 421.273438 175.621094 419.894531 175.289062 417.9375 174.964844 C 415.566406 174.570312 414.332031 174.019531 412.660156 173.832031 C 408.640625 173.371094 405.140625 173.113281 402.757812 171.527344 C 397.503906 172.566406 392.953125 173.53125 388.203125 174.839844 C 377.683594 177.742188 381.773438 175.878906 371.375 176.425781 C 355.765625 177.246094 349.796875 189.886719 334.128906 181.511719 C 326.183594 177.265625 303.148438 177.859375 293.011719 173.898438 C 285.46875 170.953125 274.484375 170.664062 272.347656 169.835938 C 270.503906 169.117188 270.441406 168.164062 267.9375 167.527344 C 260.292969 165.589844 260.320312 166.015625 255.820312 167.972656 C 246.15625 172.179688 250.703125 170.714844 246.65625 172.652344 C 243.402344 174.210938 238.566406 174.929688 234.625 176.125 C 225.507812 178.886719 222.34375 181.171875 211.976562 183.542969 C 208.796875 184.269531 202.765625 185.796875 199.984375 186.726562 C 188.433594 190.585938 195.054688 187.898438 185.441406 193.785156 C 176.015625 195.164062 163.285156 198.253906 157.472656 201.347656 C 305.65625 201.175781 469.148438 201.347656 618.757812 201.347656 C 613.308594 198.195312 594.285156 194.410156 588.707031 190.703125 C 579.703125 184.722656 585.90625 187.476562 575.082031 183.5 C 572.476562 182.546875 566.828125 180.957031 563.847656 180.199219 C 554.132812 177.722656 551.167969 175.40625 542.625 172.550781 C 538.933594 171.316406 534.402344 170.546875 531.351562 168.957031 C 527.5625 166.980469 531.820312 168.488281 522.765625 164.1875 C 518.546875 162.1875 518.574219 161.761719 511.410156 163.621094 C 509.066406 164.230469 509.007812 165.1875 507.277344 165.886719 C 505.277344 166.691406 494.984375 166.867188 487.917969 169.738281 C 478.417969 173.597656 456.832031 172.773438 449.386719 176.941406 C 446.515625 178.550781 442.707031 179.976562 440.472656 181.722656 "/>
<path style=" stroke:none;fill-rule:evenodd;fill:rgb(0%,13.563538%,38.156128%);fill-opacity:1;" d="M 336.976562 126.3125 L 364.136719 196.59375 L 324.226562 150.894531 L 264.339844 131.722656 C 261.671875 130.988281 261.746094 130.542969 264.292969 130.355469 L 333.667969 124.511719 C 335.488281 124.257812 336.425781 124.796875 336.976562 126.3125 "/>
<path style=" stroke:none;fill-rule:nonzero;fill:rgb(0%,13.563538%,38.156128%);fill-opacity:1;" d="M 146.980469 290.992188 C 327.457031 269.671875 438.761719 271.851562 619.890625 291.554688 C 621.453125 291.664062 621.324219 293.949219 619.761719 293.804688 C 454.042969 281.027344 313.25 279.703125 147.183594 293.453125 C 145.148438 293.710938 144.855469 291.140625 146.980469 290.992188 "/>
</g>
</svg>
